<svg id="Layer_1" enable-background="new 0 0 512.001 512.001" height="512" viewBox="0 0 512.001 512.001" width="512" xmlns="http://www.w3.org/2000/svg"><g><g clip-rule="evenodd" fill-rule="evenodd"><path d="m336.224 442h-201.333-9.948v60.001h221.227v-60.001z" fill="#ff9346"/><g fill="#ffdcd5"><path d="m115.72 338.124c0 34.494 19.026 68.988 19.171 103.481v.395h201.333v-.395c.24-61.819 35.163-48.807 58.477-110.624 7.422-19.68-3.931-37.04-8.821-46.572-13.474-23.337-23.692-27-35.946-25.822l22.141-157.899c2.291-16.339-8.805-31.464-24.48-33.584s-29.281 9.696-32.522 25.874l-24.026 119.92c-1.376 5.135-9.7 4.725-10 0l-14.44-174.311c-1.362-16.443-14.399-29.329-30.196-28.554-15.798.775-27.787 14.882-27.255 31.373l4.992 154.835c5.017 4.702 8.266 11.198 8.578 18.629 1.182 28.213 2.365 56.427 3.547 84.64.638 15.222-11.282 28.837-26.518 28.837-15.235 0-28.199-11.295-28.837-26.517l-.75-17.898c.604 14.656-10.874 27.759-25.544 27.759-14.675 0-27.163-10.879-27.777-25.543l-1.126-26.87v78.846z"/><path d="m170.917 301.83c.637 15.222 13.602 26.517 28.837 26.517 15.236 0 27.156-13.615 26.518-28.837-1.182-28.213-2.365-56.427-3.547-84.64-.311-7.432-3.561-13.927-8.578-18.629-5.259-4.929-12.462-7.888-20.26-7.888-15.236 0-27.156 13.615-26.518 28.837l.835 19.917 1.962 46.825z"/><path d="m144.624 311.69c14.669 0 26.147-13.103 25.544-27.759l-1.962-46.825c-.615-14.663-13.101-25.543-27.777-25.543s-26.157 13.114-25.543 27.777l.835 19.936 1.126 26.87c.614 14.665 13.102 25.544 27.777 25.544z"/></g></g><g><path d="m396.352 282.814c-.571-1.063-1.104-2.054-1.574-2.97-.075-.147-.154-.292-.237-.436-9.336-16.171-18.109-25.084-28.446-28.898-1.598-.59-3.175-1.025-4.739-1.354l20.624-147.079c1.507-10.747-1.246-21.392-7.751-29.975-6.254-8.253-15.237-13.547-25.292-14.907-20.476-2.769-39.25 11.77-43.668 33.819l-17.181 85.753-11.516-139.006c-1.837-22.178-19.694-38.731-40.652-37.717-20.977 1.029-37.467 19.728-36.76 41.684l4.442 137.806c-3.105-.768-6.359-1.181-9.715-1.181-9.763 0-18.955 3.979-25.884 11.204-4.469 4.66-7.656 10.377-9.324 16.52-5.41-2.88-11.632-4.512-18.252-4.512-9.505 0-18.454 3.873-25.198 10.905-6.989 7.289-10.757 17.236-10.336 27.292l.826 19.71v78.654c0 18.671 5.058 36.939 9.949 54.606 3.76 13.579 7.345 26.556 8.675 39.3-5.242.312-9.4 4.649-9.4 9.97v60c0 5.523 4.478 10 10 10h221.227c5.522 0 10-4.477 10-10v-60c0-5.378-4.249-9.752-9.571-9.978 1.792-22.956 9.949-31.255 21.62-43.104 11.06-11.228 24.823-25.201 35.838-54.408 8.274-21.94-2.121-41.298-7.705-51.698zm-213.913-79.415c3.12-3.254 7.187-5.046 11.448-5.046 10.17 0 18.448 7.439 18.846 16.937l3.547 84.641c.206 4.917-1.645 9.79-5.076 13.37-3.121 3.255-7.188 5.047-11.45 5.047-10.17 0-18.448-7.439-18.846-16.936l-.749-17.887c0-.001-.001-.003-.001-.004v-.007l-1.962-46.824-.835-19.917c-.206-4.92 1.645-9.794 5.078-13.374zm-52.774 22.913c2.937-3.062 6.759-4.748 10.763-4.748 9.596 0 17.406 7.007 17.786 15.954v.008l1.962 46.822c.189 4.634-1.558 9.226-4.794 12.599-2.936 3.059-6.756 4.743-10.758 4.743-9.599 0-17.411-7.011-17.786-15.961l-1.962-46.806c-.194-4.638 1.552-9.235 4.789-12.611zm255.68 101.14c-9.521 25.246-20.63 36.524-31.373 47.43-12.953 13.149-25.244 25.644-27.407 57.118h-46.012c-5.522 0-10 4.477-10 10s4.478 10 10 10h55.617v40h-201.227v-40h55.609c5.522 0 10-4.477 10-10s-4.478-10-10-10h-46.126c-1.35-15.201-5.469-30.108-9.483-44.606-4.743-17.133-9.224-33.316-9.224-49.27v-21.308c5.561 3.102 12.016 4.874 18.904 4.874 7 0 13.699-2.101 19.438-6.018 5.962 13.409 19.696 22.674 35.692 22.674 9.764 0 18.957-3.979 25.886-11.205 7.185-7.493 11.057-17.717 10.623-28.05l-3.547-84.64c-.355-8.478-3.561-16.179-8.695-22.276l-4.87-151.091c-.358-11.117 7.604-20.565 17.75-21.063 10.137-.507 18.799 8.021 19.74 19.392l14.434 174.238c.493 6.864 5.862 12.147 13.096 12.866 7.664.766 14.619-3.875 16.536-11.03.056-.207.104-.415.146-.624l24.027-119.92c2.315-11.556 11.501-19.263 21.376-17.928 4.743.642 9.017 3.187 12.033 7.168 3.268 4.311 4.646 9.679 3.884 15.117l-21.105 150.514c-1.305.244-2.617.501-3.939.762-1.89.373-3.847.76-5.887 1.119-20.848 3.669-32.783 2.019-41.499.813-2.707-.375-5.264-.729-7.738-.879-8.737-.539-16.485 4.458-20.754 13.348-5.294 11.02-5.281 29.185 7.257 43.025.299.33.597.644.895.962-28.701 16.277-43.845 50.382-43.845 73.035 0 5.523 4.478 10 10 10s10-4.477 10-10c0-19.046 15.124-50.336 42.563-59.62 7.203 2.946 14.004 3.577 20.351 4.163 3.875.358 7.536.696 11.367 1.521 5.398 1.162 10.718-2.271 11.881-7.67s-2.271-10.718-7.67-11.881c-5.006-1.078-9.646-1.507-13.739-1.885-10.556-.975-17.529-1.619-26.98-12.053-5.335-5.89-6.031-13.423-5.007-18.084.713-3.242 2.086-4.739 2.466-4.9 1.709.104 3.796.393 6.213.728 9.463 1.308 23.765 3.287 47.707-.927 2.181-.384 4.273-.796 6.293-1.195 8.602-1.698 13.688-2.577 18.168-.923 5.462 2.015 11.328 8.536 17.932 19.93.493.954 1.043 1.98 1.631 3.074 4.926 9.177 11.676 21.746 6.612 35.175z"/><path d="m235.557 432h-.008c-5.522 0-9.996 4.477-9.996 10s4.481 10 10.004 10 10-4.477 10-10-4.478-10-10-10z"/></g></g></svg>